{
  "asset": {
    "version": "2.0",
    "generator": "Sketchup glTF Exporter v1.2.6 by Centaur"
  },
  "scene": 0,
  "scenes": [
    {
      "nodes": [
        0
      ]
    }
  ],
  "samplers": [
    {
    }
  ],
  "nodes": [
    {
      "name": "root",
      "children": [
        1,
        2
      ],
      "mesh": 2
    },
    {
      "mesh": 0
    },
    {
      "mesh": 1
    }
  ],
  "materials": [
    {
      "pbrMetallicRoughness": {
        "baseColorFactor": [
          0.2176,
          0.2176,
          0.2176,
          1.0
        ],
        "metallicFactor": 0.1,
        "roughnessFactor": 0.9
      },
      "name": "default material",
      "doubleSided": true
    },
    {
      "pbrMetallicRoughness": {
        "baseColorFactor": [
          0.4045,
          0.4045,
          0.4045,
          1.0
        ],
        "metallicFactor": 0.1,
        "roughnessFactor": 0.9
      },
      "name": "0132_LightGray"
    },
    {
      "pbrMetallicRoughness": {
        "baseColorFactor": [
          1.0,
          1.0,
          1.0,
          1.0
        ],
        "metallicFactor": 0.1,
        "roughnessFactor": 0.9
      },
      "name": "Color M00"
    },
    {
      "pbrMetallicRoughness": {
        "baseColorFactor": [
          1.0,
          0.0564,
          0.0,
          1.0
        ],
        "metallicFactor": 0.1,
        "roughnessFactor": 0.9
      },
      "name": "0024_OrangeRed"
    },
    {
      "pbrMetallicRoughness": {
        "baseColorFactor": [
          0.1275,
          0.3066,
          0.8513,
          0.5
        ],
        "metallicFactor": 0.1,
        "roughnessFactor": 0.9
      },
      "name": "Translucent Glass Blue",
      "doubleSided": true,
      "alphaMode": "BLEND"
    },
    {
      "pbrMetallicRoughness": {
        "baseColorFactor": [
          0.7667,
          0.7667,
          0.7667,
          1.0
        ],
        "metallicFactor": 0.1,
        "roughnessFactor": 0.9
      },
      "name": "Color M01"
    },
    {
      "pbrMetallicRoughness": {
        "baseColorFactor": [
          0.5732,
          0.5732,
          0.5732,
          1.0
        ],
        "metallicFactor": 0.1,
        "roughnessFactor": 0.9
      },
      "name": "Color M02"
    }
  ],
  "meshes": [
    {
      "primitives": [
        {
          "attributes": {
            "POSITION": 0,
            "NORMAL": 1
          },
          "indices": 2,
          "mode": 4,
          "material": 1
        },
        {
          "attributes": {
            "POSITION": 0,
            "NORMAL": 1
          },
          "indices": 3,
          "mode": 4,
          "material": 3
        }
      ]
    },
    {
      "primitives": [
        {
          "attributes": {
            "POSITION": 0,
            "NORMAL": 1
          },
          "indices": 4,
          "mode": 4,
          "material": 1
        },
        {
          "attributes": {
            "POSITION": 0,
            "NORMAL": 1
          },
          "indices": 5,
          "mode": 4,
          "material": 3
        }
      ]
    },
    {
      "primitives": [
        {
          "attributes": {
            "POSITION": 0,
            "NORMAL": 1
          },
          "indices": 6,
          "mode": 4,
          "material": 0
        },
        {
          "attributes": {
            "POSITION": 0,
            "NORMAL": 1
          },
          "indices": 7,
          "mode": 4,
          "material": 1
        },
        {
          "attributes": {
            "POSITION": 0,
            "NORMAL": 1
          },
          "indices": 8,
          "mode": 4,
          "material": 2
        },
        {
          "attributes": {
            "POSITION": 0,
            "NORMAL": 1
          },
          "indices": 9,
          "mode": 4,
          "material": 4
        },
        {
          "attributes": {
            "POSITION": 0,
            "NORMAL": 1
          },
          "indices": 10,
          "mode": 4,
          "material": 5
        },
        {
          "attributes": {
            "POSITION": 0,
            "NORMAL": 1
          },
          "indices": 11,
          "mode": 4,
          "material": 6
        }
      ]
    }
  ],
  "accessors": [
    {
      "bufferView": 0,
      "componentType": 5126,
      "count": 1960,
      "type": "VEC3",
      "min": [
        -1.4438228390645235e-15,
        -2.2540186839782533e-15,
        -36.810918634623285
      ],
      "max": [
        45.37545931731165,
        5.251878959739583,
        7.919832148906233e-14
      ]
    },
    {
      "bufferView": 1,
      "componentType": 5126,
      "count": 1960,
      "type": "VEC3",
      "min": [
        -1.0,
        -1.0,
        -1.0
      ],
      "max": [
        1.0,
        1.0,
        1.0
      ]
    },
    {
      "bufferView": 2,
      "componentType": 5123,
      "count": 90,
      "type": "SCALAR"
    },
    {
      "bufferView": 2,
      "componentType": 5123,
      "count": 6,
      "type": "SCALAR",
      "byteOffset": 180
    },
    {
      "bufferView": 2,
      "componentType": 5123,
      "count": 90,
      "type": "SCALAR",
      "byteOffset": 192
    },
    {
      "bufferView": 2,
      "componentType": 5123,
      "count": 6,
      "type": "SCALAR",
      "byteOffset": 372
    },
    {
      "bufferView": 2,
      "componentType": 5123,
      "count": 1260,
      "type": "SCALAR",
      "byteOffset": 384
    },
    {
      "bufferView": 2,
      "componentType": 5123,
      "count": 312,
      "type": "SCALAR",
      "byteOffset": 2904
    },
    {
      "bufferView": 2,
      "componentType": 5123,
      "count": 2376,
      "type": "SCALAR",
      "byteOffset": 3528
    },
    {
      "bufferView": 2,
      "componentType": 5123,
      "count": 48,
      "type": "SCALAR",
      "byteOffset": 8280
    },
    {
      "bufferView": 2,
      "componentType": 5123,
      "count": 6,
      "type": "SCALAR",
      "byteOffset": 8376
    },
    {
      "bufferView": 2,
      "componentType": 5123,
      "count": 60,
      "type": "SCALAR",
      "byteOffset": 8388
    }
  ],
  "bufferViews": [
    {
      "buffer": 0,
      "byteLength": 23520,
      "target": 34962,
      "byteStride": 12
    },
    {
      "buffer": 0,
      "byteOffset": 23520,
      "byteLength": 23520,
      "target": 34962,
      "byteStride": 12
    },
    {
      "buffer": 0,
      "byteOffset": 47040,
      "byteLength": 8508,
      "target": 34963
    }
  ],
  "buffers": [
    {
      "uri": "data:application/octet-stream;base64,",
      "byteLength": 55548
    }
  ]
}