{
  "asset": {
    "version": "2.0",
    "generator": "Sketchup glTF Exporter v1.2.6 by Centaur"
  },
  "scene": 0,
  "scenes": [
    {
      "nodes": [
        0
      ]
    }
  ],
  "samplers": [
    {
    }
  ],
  "nodes": [
    {
      "name": "root",
      "mesh": 0
    }
  ],
  "materials": [
    {
      "pbrMetallicRoughness": {
        "baseColorFactor": [
          0.2176,
          0.2176,
          0.2176,
          1.0
        ],
        "metallicFactor": 0.1,
        "roughnessFactor": 0.9
      },
      "name": "default material",
      "doubleSided": true
    },
    {
      "pbrMetallicRoughness": {
        "baseColorFactor": [
          0.7667,
          0.7667,
          0.7667,
          1.0
        ],
        "metallicFactor": 0.1,
        "roughnessFactor": 0.9
      },
      "name": "Color M01"
    },
    {
      "pbrMetallicRoughness": {
        "baseColorFactor": [
          0.006,
          0.006,
          0.1636,
          1.0
        ],
        "metallicFactor": 0.1,
        "roughnessFactor": 0.9
      },
      "name": "0107_MidnightBlue"
    },
    {
      "pbrMetallicRoughness": {
        "baseColorFactor": [
          0.2632,
          0.0564,
          0.0033,
          1.0
        ],
        "metallicFactor": 0.1,
        "roughnessFactor": 0.9
      },
      "name": "0043_SaddleBrown"
    },
    {
      "pbrMetallicRoughness": {
        "baseColorTexture": {
          "index": 0
        },
        "metallicFactor": 0.1,
        "roughnessFactor": 0.9
      },
      "name": "Wax 02",
      "doubleSided": true
    },
    {
      "pbrMetallicRoughness": {
        "baseColorFactor": [
          1.0,
          1.0,
          1.0,
          1.0
        ],
        "metallicFactor": 0.1,
        "roughnessFactor": 0.9
      },
      "name": "Color M00"
    },
    {
      "pbrMetallicRoughness": {
        "baseColorFactor": [
          0.1275,
          0.3066,
          0.8513,
          1.0
        ],
        "metallicFactor": 0.1,
        "roughnessFactor": 0.9
      },
      "name": "0101_CornflowerBlue"
    },
    {
      "pbrMetallicRoughness": {
        "baseColorTexture": {
          "index": 1
        },
        "roughnessFactor": 0.1
      },
      "name": "Steel Brushed Stainless"
    }
  ],
  "images": [
    {
      "bufferView": 0,
      "mimeType": "image/jpeg"
    },
    {
      "bufferView": 1,
      "mimeType": "image/jpeg"
    }
  ],
  "textures": [
    {
      "source": 0,
      "sampler": 0
    },
    {
      "source": 1,
      "sampler": 0
    }
  ],
  "meshes": [
    {
      "primitives": [
        {
          "attributes": {
            "POSITION": 0,
            "NORMAL": 1
          },
          "indices": 5,
          "mode": 4,
          "material": 0
        },
        {
          "attributes": {
            "POSITION": 0,
            "NORMAL": 1
          },
          "indices": 6,
          "mode": 4,
          "material": 1
        },
        {
          "attributes": {
            "POSITION": 0,
            "NORMAL": 1
          },
          "indices": 7,
          "mode": 4,
          "material": 2
        },
        {
          "attributes": {
            "POSITION": 0,
            "NORMAL": 1
          },
          "indices": 8,
          "mode": 4,
          "material": 3
        },
        {
          "attributes": {
            "POSITION": 2,
            "NORMAL": 3,
            "TEXCOORD_0": 4
          },
          "indices": 9,
          "mode": 4,
          "material": 4
        },
        {
          "attributes": {
            "POSITION": 0,
            "NORMAL": 1
          },
          "indices": 10,
          "mode": 4,
          "material": 5
        },
        {
          "attributes": {
            "POSITION": 0,
            "NORMAL": 1
          },
          "indices": 11,
          "mode": 4,
          "material": 6
        },
        {
          "attributes": {
            "POSITION": 2,
            "NORMAL": 3,
            "TEXCOORD_0": 4
          },
          "indices": 12,
          "mode": 4,
          "material": 7
        }
      ]
    }
  ],
  "accessors": [
    {
      "bufferView": 2,
      "componentType": 5126,
      "count": 3273,
      "type": "VEC3",
      "min": [
        -0.5980154867213373,
        -2.8799999999999986,
        20.37707999402395
      ],
      "max": [
        57.5129031479021,
        2.320000000000006,
        57.187998628647286
      ]
    },
    {
      "bufferView": 3,
      "componentType": 5126,
      "count": 3273,
      "type": "VEC3",
      "min": [
        -1.0,
        -1.0,
        -1.0
      ],
      "max": [
        1.0,
        1.0,
        1.0
      ]
    },
    {
      "bufferView": 4,
      "componentType": 5126,
      "count": 16,
      "type": "VEC3",
      "min": [
        11.74644034679756,
        3.0104541978174844e-15,
        47.51753931133561
      ],
      "max": [
        34.76744383059031,
        1.735614410806578,
        52.63081303452088
      ]
    },
    {
      "bufferView": 5,
      "componentType": 5126,
      "count": 16,
      "type": "VEC3",
      "min": [
        -7.498798913309288e-33,
        -1.0,
        6.123233995736766e-17
      ],
      "max": [
        1.0,
        7.498798913309291e-33,
        2.4492935982947064e-16
      ]
    },
    {
      "bufferView": 6,
      "componentType": 5126,
      "count": 16,
      "type": "VEC2",
      "min": [
        -53.92884876567762,
        -0.13885460026678142
      ],
      "max": [
        -12.84606337138842,
        54.92884876567762
      ]
    },
    {
      "bufferView": 7,
      "componentType": 5123,
      "count": 5787,
      "type": "SCALAR"
    },
    {
      "bufferView": 7,
      "componentType": 5123,
      "count": 690,
      "type": "SCALAR",
      "byteOffset": 11574
    },
    {
      "bufferView": 7,
      "componentType": 5123,
      "count": 333,
      "type": "SCALAR",
      "byteOffset": 12954
    },
    {
      "bufferView": 7,
      "componentType": 5123,
      "count": 195,
      "type": "SCALAR",
      "byteOffset": 13620
    },
    {
      "bufferView": 8,
      "componentType": 5121,
      "count": 12,
      "type": "SCALAR"
    },
    {
      "bufferView": 7,
      "componentType": 5123,
      "count": 261,
      "type": "SCALAR",
      "byteOffset": 14010
    },
    {
      "bufferView": 7,
      "componentType": 5123,
      "count": 213,
      "type": "SCALAR",
      "byteOffset": 14532
    },
    {
      "bufferView": 8,
      "componentType": 5121,
      "count": 12,
      "type": "SCALAR",
      "byteOffset": 12
    }
  ],
  "bufferViews": [
    {
      "buffer": 0,
      "byteLength": 3228
    },
    {
      "buffer": 0,
      "byteOffset": 3228,
      "byteLength": 27544
    },
    {
      "buffer": 0,
      "byteOffset": 30780,
      "byteLength": 39276,
      "target": 34962,
      "byteStride": 12
    },
    {
      "buffer": 0,
      "byteOffset": 70056,
      "byteLength": 39276,
      "target": 34962,
      "byteStride": 12
    },
    {
      "buffer": 0,
      "byteOffset": 109332,
      "byteLength": 192,
      "target": 34962,
      "byteStride": 12
    },
    {
      "buffer": 0,
      "byteOffset": 109524,
      "byteLength": 192,
      "target": 34962,
      "byteStride": 12
    },
    {
      "buffer": 0,
      "byteOffset": 109720,
      "byteLength": 128,
      "target": 34962,
      "byteStride": 8
    },
    {
      "buffer": 0,
      "byteOffset": 109848,
      "byteLength": 14958,
      "target": 34963
    },
    {
      "buffer": 0,
      "byteOffset": 124806,
      "byteLength": 24,
      "target": 34963
    }
  ],
  "buffers": [
    {
      "uri": "data:application/octet-stream;base64,",
      "byteLength": 124830
    }
  ]
}